<?xml version="1.0" standalone="no"?>
<!DOCTYPE svg PUBLIC "-//W3C//DTD SVG 1.1//EN" "http://www.w3.org/Graphics/SVG/1.1/DTD/svg11.dtd" >
<svg xmlns="http://www.w3.org/2000/svg">
<metadata>Generated by IcoMoon</metadata>
<defs>
<font id="icon91" horiz-adv-x="1024">
<font-face units-per-em="1024" ascent="960" descent="-64" />
<missing-glyph horiz-adv-x="1024" />
<glyph unicode="&#x20;" horiz-adv-x="512" d="" />
<glyph unicode="&#xe900;" glyph-name="bell" horiz-adv-x="939" d="M552.408 36.954c0-51.647-42.619-93.647-95.218-93.647s-95.218 42.001-95.218 93.647c0 51.703 42.619 93.647 95.218 93.647s95.218-41.945 95.218-93.647zM460.217 63.242h389.507c61.684 0 78.002 40.544 36.281 85.966l-81.535 85.18c-41.777 45.422-43.516 114.339-43.516 151.070v64.769c0 210.624-133.125 381.432-308.364 381.432-175.295 0-308.477-170.809-308.477-381.432v-67.236c0-38.692 1.739-107.442-40.095-152.808l-73.516-81.030c-41.777-45.366-27.533-85.909 34.15-85.909h395.563zM480.59 684.026c0-48.619-10.655-88.040-23.777-88.040h-8.524c-13.122 0-23.777 39.422-23.777 88.040v169.688c0 48.619 10.655 78.731 23.777 78.731h8.524c13.122 0 23.777-30.113 23.777-78.731v-169.688z" />
<glyph unicode="&#xe901;" glyph-name="arrow" horiz-adv-x="652" d="M596.043 494.213l-430.799 430.799c-30.292 30.292-79.399 30.292-109.689 0s-30.292-79.399 0-109.689l376.006-376.006-376.006-375.903c-30.292-30.292-30.292-79.399 0-109.689 15.094-15.094 34.944-22.744 54.793-22.744s39.699 7.547 54.793 22.744l430.799 430.696c30.395 30.395 30.395 79.502 0.103 109.794z" />
<glyph unicode="&#xe902;" glyph-name="people" horiz-adv-x="960" d="M960.016-53.136l-4.224 217.863c-21.185 125.636-149.509 298.314-323.019 364.044 53.122 44.161 87.619 113.988 87.619 188.358 0 132.996-107.844 242.824-240.776 242.824-133.060 0-240.84-106.756-240.84-239.752 0-74.498 34.497-139.717 87.619-183.878-173.51-65.666-301.898-246.344-322.955-371.98l-3.456-217.479h960.032z" />
<glyph unicode="&#xe903;" glyph-name="shop" d="M184.475 754.934c-23.55 0-49.636-10.326-57.969-32.306l-125.117-320.4c-8.454-21.919 3.986-32.185 27.475-32.185h951.719c23.55 0 36.352 14.19 28.562 36.472l-115.757 317.743c-7.85 22.222-33.574 30.736-57.003 30.736h-651.911zM846.953 840.499h-684.398c-33.332 0-60.384 27.052-60.384 60.384s27.052 60.384 60.384 60.384h684.398c33.393 0 60.384-27.052 60.384-60.384s-26.992-60.384-60.384-60.384zM846.953 455.548h-684.398c-23.61 0-42.753-19.142-42.753-42.813v-427.643c0-23.731 19.142-42.813 42.753-42.813h384.951v270.885c0 15.7 19.142 28.562 42.813 28.562h128.317c23.61 0 42.753-12.862 42.753-28.562v-270.885h85.564c23.61 0 42.753 19.081 42.753 42.813v427.643c0 23.67-19.142 42.813-42.753 42.813z" />
<glyph unicode="&#xe904;" glyph-name="circle-cancel" d="M512-64c-282.351 0-512 229.687-512 512s229.687 512 512 512 512-229.687 512-512c0-282.351-229.649-512-512-512zM512 883.565c-240.158 0-435.565-195.368-435.565-435.565 0-240.158 195.407-435.565 435.565-435.565s435.565 195.407 435.565 435.565c0 240.197-195.407 435.565-435.565 435.565zM364.71 228.249c-14.675 0-29.351 5.58-40.549 16.777-22.396 22.396-22.396 58.664 0 81.060l324.849 324.849c22.396 22.396 58.664 22.396 81.060 0s22.396-58.664 0-81.060l-324.849-324.849c-11.159-11.198-25.836-16.777-40.511-16.777zM689.559 228.249c-14.675 0-29.351 5.58-40.549 16.777l-324.849 324.849c-22.396 22.396-22.396 58.664 0 81.060s58.664 22.396 81.060 0l324.849-324.849c22.396-22.396 22.396-58.664 0-81.060-11.159-11.198-25.836-16.777-40.511-16.777z" />
<glyph unicode="&#xe905;" glyph-name="search" horiz-adv-x="1063" d="M690.334 202.682l-1.123 76.533c-10.984 64.947-77.295 154.229-166.977 188.225 27.462 22.771 45.303 58.853 45.303 97.299 0 68.675-55.646 125.484-124.441 125.484-68.715 0-124.441-55.164-124.441-123.92 0-38.447 17.84-72.123 45.262-94.974-89.642-33.957-155.993-127.328-166.897-192.314l-0.882-76.172c-76.774 68.274-125.484 167.538-125.484 278.108 0 205.505 167.178 372.722 372.681 372.722s372.681-167.217 372.681-372.722c0-110.65-48.79-209.954-125.684-278.269zM1028.097 30.773l-208.030 195.441c-0.521 0.521-1.243 0.641-1.804 1.123 49.151 72.404 77.936 159.72 77.936 253.613 0 249.764-203.179 452.903-452.863 452.903-249.724 0-452.863-203.139-452.863-452.903 0-249.684 203.139-452.823 452.863-452.823 112.655 0 215.607 41.614 294.906 109.929l207.468-194.92c11.627-10.905 26.419-16.317 41.173-16.317 16.036 0 31.992 6.374 43.819 18.963 22.771 24.175 21.569 62.301-2.606 84.992z" />
<glyph unicode="&#xe906;" glyph-name="circle-success" d="M512-64c-282.351 0-512 229.687-512 512s229.649 512 512 512 512-229.649 512-512-229.649-512-512-512zM512 883.565c-240.158 0-435.565-195.407-435.565-435.565s195.407-435.565 435.565-435.565 435.565 195.407 435.565 435.565-195.407 435.565-435.565 435.565zM471.413 218.695c-15.172 0-29.771 2.026-40.549 12.803l-167.202 165.215c-22.396 22.396-22.396 57.67 0 80.066s58.664 21.86 81.060-0.534l123.404-123.634 206.527 241.077c20.637 24.038 56.829 26.828 80.83 6.23 24.038-20.599 26.828-56.829 6.267-80.869l-246.846-284.262c-10.319-12.153-25.3-16.090-41.275-16.090-0.726 0-1.453 0-2.217 0z" />
<glyph unicode="&#xe907;" glyph-name="triangle-alert" d="M575.45 194.908c0-29.834-24.187-54.021-54.021-54.021s-54.021 24.187-54.021 54.021c0 29.834 24.187 54.021 54.021 54.021s54.021-24.187 54.021-54.021zM571.836 370.878c-6.13-42.784-28.798-77.75-50.407-77.75s-44.277 35.006-50.407 77.75l-17.090 119.475c-6.090 42.784 24.24 77.79 67.457 77.79v0c43.217 0 73.586-35.006 67.457-77.79l-17.012-119.475zM983.847-23.454c-0.196 0-0.511 0-0.786 0h-942.909c-14.025 0-27.030 8.996-34.024 21.805-6.994 12.729-6.994 28.995 0 41.763l471.454 857.694c14.025 25.497 54.021 25.655 68.046 0.157l468.037-851.093c5.893-7.228 9.469-17.68 9.469-27.973 0-22.787-17.601-42.353-39.288-42.353zM108.199 55.121h806.816l-403.408 733.661-403.408-733.661z" />
<glyph unicode="&#xe908;" glyph-name="account" horiz-adv-x="1195" d="M253.916 29.99c-79.988 0-149.442 25.52-195.688 71.852-39.566 39.651-60.462 92.406-60.376 152.526 0 35.455 28.775 64.145 64.23 64.145 0 0 0.085 0 0.085 0 35.54-0.085 64.145-28.86 64.145-64.315 0-26.034 7.451-46.16 22.866-61.661 21.667-21.581 59.777-34.085 104.738-34.085 38.366 0 127.69 9.249 127.69 95.66 0 51.813-11.733 62.946-125.206 119.040l-61.147 30.317c-110.304 54.467-197.4 97.458-197.4 234.568-0.085 60.376 20.982 113.387 60.805 153.382 46.417 46.417 115.786 72.023 195.26 72.023 151.583 0 253.409-90.608 253.409-225.405 0-35.455-28.775-64.23-64.23-64.23s-64.23 28.775-64.23 64.23c0 87.438-87.438 96.944-124.949 96.944-44.533 0-82.557-12.504-104.395-34.342-15.672-15.757-23.208-36.226-23.208-62.517 0-51.983 11.733-63.117 125.719-119.383l61.232-30.317c109.877-54.296 196.63-97.116 196.801-234.14 0-134.198-102.94-224.292-256.15-224.292zM249.634 748.34c-35.455 0-64.23 28.775-64.23 64.23v81.359c0 35.455 28.775 64.23 64.23 64.23s64.23-28.775 64.23-64.23v-81.359c0-35.455-28.775-64.23-64.23-64.23zM249.634-65.841c-35.455 0-64.23 28.775-64.23 64.23v81.272c0 35.455 28.775 64.23 64.23 64.23s64.23-28.775 64.23-64.23v-81.272c0-35.455-28.775-64.23-64.23-64.23zM1097.814 617.482h-428.201c-23.637 0-42.82 19.184-42.82 42.82s19.184 42.82 42.82 42.82h428.201c23.637 0 42.82-19.184 42.82-42.82s-19.184-42.82-42.82-42.82zM1097.814 360.562h-428.201c-23.637 0-42.82 19.184-42.82 42.82s19.184 42.82 42.82 42.82h428.201c23.637 0 42.82-19.184 42.82-42.82s-19.184-42.82-42.82-42.82zM1097.814 103.641h-428.201c-23.637 0-42.82 19.184-42.82 42.82s19.184 42.82 42.82 42.82h428.201c23.637 0 42.82-19.184 42.82-42.82s-19.184-42.82-42.82-42.82z" />
<glyph unicode="&#xe909;" glyph-name="activity" horiz-adv-x="723" d="M400.116 550.928h225.679c-14.382-16.884-29.391-33.767-44.398-50.026l-420.217-479.624c1.251 4.94 2.501 9.942 3.752 14.32l85.044 330.171c5.003 21.261-0.625 35.018-6.254 43.147-8.13 10.568-20.636 16.884-37.519 18.134h-204.48c47.525 51.902 95.050 103.804 142.573 156.331l125.69 137.572c63.158 68.786 125.69 137.572 188.848 206.356l-101.302-323.918c-0.625-0.625-0.625-1.251-0.625-1.876-3.127-13.131-0.625-25.638 6.879-35.018 5.69-6.753 16.321-15.571 36.332-15.571zM289.434-83.525c-7.379 0-14.758 2.564-20.761 7.879-12.945 11.506-14.132 31.203-2.626 44.148l400.395 451.484c11.443 13.007 31.203 14.194 44.148 2.626 12.881-11.506 14.132-31.203 2.626-44.148l-400.395-451.546c-6.19-6.879-14.82-10.443-23.387-10.443v0z" />
<glyph unicode="&#xe90a;" glyph-name="ad" d="M140.215 155.429l277.431 292.571 191.927-146.286 123.099 108.837 193.829-255.122h-786.286zM295.058 784.603c67.657 0 122.587-54.93 122.587-122.661 0-67.657-54.93-122.587-122.587-122.587s-122.587 54.93-122.587 122.587c0 67.73 54.93 122.661 122.587 122.661v0zM896 960h-768c-70.656 0-128-57.344-128-128v-768c0-70.656 57.344-128 128-128h768c70.656 0 128 57.344 128 128v768c0 70.656-57.344 128-128 128v0z" />
<glyph unicode="&#xe90b;" glyph-name="chart" horiz-adv-x="1097" d="M422.912 228.571h-140.946v438.857h140.946v-438.857zM634.441 228.571h-141.019v731.429h141.019v-731.429zM845.824 228.571h-141.019v585.143h141.019v-585.143zM1057.353-64h-1022.098c-19.529 0-35.255 16.384-35.255 36.571v841.143c0 20.187 15.726 36.571 35.255 36.571 19.456 0 35.255-16.384 35.255-36.571v-804.571h986.843c19.456 0 35.182-16.384 35.182-36.571s-15.726-36.571-35.182-36.571z" />
<glyph unicode="&#xe90c;" glyph-name="customer" horiz-adv-x="1170" d="M398.404 493.51c-123.19 0-223.432 100.243-223.432 223.357s100.243 223.357 223.432 223.357c18.494 0 36.761-2.189 54.349-6.643 15.323-3.774 30.646-9.436 45.441-16.833 18.644-9.36 26.193-32.006 16.833-50.65s-32.006-26.117-50.65-16.908c-9.737 4.906-19.776 8.605-29.816 11.096-11.7 2.944-23.853 4.453-36.156 4.453-81.598 0-147.948-66.351-147.948-147.873s66.351-147.873 147.948-147.873c15.852 0 31.25 2.416 45.894 7.247 19.701 6.643 41.139-4.227 47.63-24.080 6.491-19.776-4.302-41.139-24.080-47.63-22.192-7.322-45.592-11.021-69.445-11.021zM37.742 103.636c-20.833 0-37.742 16.908-37.742 37.742 0 231.736 182.444 427.616 398.404 427.616 20.833 0 37.742-16.908 37.742-37.742s-16.908-37.742-37.742-37.742c-175.047 0-322.92-161.309-322.92-352.132 0-20.833-16.908-37.742-37.742-37.742zM958.344 690.523c0-124.020-100.62-224.489-224.489-224.489-124.020 0-224.489 100.469-224.489 224.489 0 123.945 100.544 224.489 224.489 224.489 123.869 0 224.489-100.544 224.489-224.489zM1170-44.237c0 150.968-76.994 318.618-193.843 400.895-69.294 48.762-152.629 67.558-242.227 67.558-240.869-0.075-436.222-242.001-436.222-468.453h872.292z" />
<glyph unicode="&#xe90d;" glyph-name="dashboard" horiz-adv-x="1103" d="M472.73 477.538c0-38.046-30.878-68.923-68.923-68.923h-334.769c-38.046 0-68.923 30.878-68.923 68.923v413.538c0 38.046 30.878 68.923 68.923 68.923h334.769c38.046 0 68.923-30.878 68.923-68.923v-413.538zM1102.884 4.923c0-38.046-30.878-68.923-68.923-68.923h-334.769c-38.046 0-68.923 30.878-68.923 68.923v413.538c0 38.046 30.878 68.923 68.923 68.923h334.769c38.046 0 68.923-30.878 68.923-68.923v-413.538zM472.73 4.923c0-38.046-30.878-68.923-68.923-68.923h-334.769c-38.046 0-68.923 30.878-68.923 68.923v177.231c0 38.046 30.878 68.923 68.923 68.923h334.769c38.046 0 68.923-30.878 68.923-68.923v-177.231zM1102.884 713.846c0-38.046-30.878-68.923-68.923-68.923h-334.769c-38.046 0-68.923 30.878-68.923 68.923v177.231c0 38.046 30.878 68.923 68.923 68.923h334.769c38.046 0 68.923-30.878 68.923-68.923v-177.231z" />
<glyph unicode="&#xe90e;" glyph-name="order" d="M768-64h-622.592c-84.224 0-145.408 57.088-145.408 135.765v632.235c0 23.552 19.115 42.667 42.667 42.667s42.667-19.115 42.667-42.667v-632.235c0-37.291 32.341-50.432 60.075-50.432h622.592c23.552 0 42.667-19.115 42.667-42.667s-19.115-42.667-42.667-42.667zM426.667 448h426.667c23.467 0 42.667-19.115 42.667-42.667 0-23.467-19.2-42.667-42.667-42.667h-426.667c-23.552 0-42.667 19.2-42.667 42.667 0 23.552 19.115 42.667 42.667 42.667v0zM426.667 618.667h426.667c23.467 0 42.667-19.115 42.667-42.667s-19.2-42.667-42.667-42.667h-426.667c-23.552 0-42.667 19.115-42.667 42.667s19.115 42.667 42.667 42.667v0zM426.667 789.333h426.667c23.467 0 42.667-19.115 42.667-42.667s-19.2-42.667-42.667-42.667h-426.667c-23.552 0-42.667 19.115-42.667 42.667s19.115 42.667 42.667 42.667v0zM963.925 192c29.867 0 60.075 16.128 60.075 52.139v654.763c0 33.707-26.795 61.099-60.075 61.099h-647.851c-33.195 0-60.075-27.392-60.075-61.099v-654.763c0-36.011 30.208-52.139 60.075-52.139h647.851z" />
<glyph unicode="&#xe90f;" glyph-name="product" d="M321.099 566.738c-48.595 0-87.907 39.382-87.907 87.978 0 48.525 39.312 87.837 87.907 87.837 48.455 0 87.907-39.312 87.907-87.837 0-48.595-39.453-87.978-87.907-87.978v0zM451.273 960.211l-410.633-25.176-39.593-409.929 571.749-589.331 450.156 435.036-571.679 589.401z" />
<glyph unicode="&#xe910;" glyph-name="service" horiz-adv-x="1170" d="M126.317 328.45v209.775h-11.955c-21.804 0-39.85-18.045-39.85-40.601v-128.571c0-22.557 18.045-40.601 39.85-40.601h11.955zM654.211 34.465c0 11.278-9.775 20.301-21.128 20.301h-96.992c-11.203 0-20.978-9.022-20.978-20.301 0-12.030 9.775-21.053 20.978-21.053h96.992c11.354 0 21.128 9.022 21.128 21.053v0zM1094.813 369.051v128.571c0 22.557-18.045 40.601-39.85 40.601h-12.105v-209.775h12.105c21.804 0 39.85 18.045 39.85 40.601v0zM1170.001 497.623v-128.571c0-63.909-51.955-115.038-115.038-115.038h-49.699c-20.225 0-36.842 16.541-36.842 37.594v279.699c-37.594 180.451-198.421 311.278-384.136 311.278-183.534 0-344.361-130.828-383.534-311.278v-280.451c0-121.053 99.324-219.549 220.376-219.549h26.992c15.038 34.587 48.947 58.646 87.97 58.646h96.992c52.632 0 95.564-42.857 95.564-95.488s-42.933-95.488-95.564-95.488h-96.992c-39.022 0-72.933 24.060-87.97 57.895h-26.992c-149.624 0-273.759 112.030-292.557 257.143h-14.211c-63.233 0-114.361 51.128-114.361 115.038v128.571c0 63.909 51.128 115.038 114.361 115.038h20.225c54.962 201.504 239.925 344.361 449.699 344.361 211.955 0 396.166-142.857 451.128-344.361h19.549c63.083 0 115.038-51.128 115.038-115.038v0zM1094.797 497.623v-128.571c0-22.557-18.045-40.601-39.85-40.601h-12.030v209.775h12.030c21.804 0 39.85-18.045 39.85-40.601zM126.317 538.224v-209.775h-11.955c-21.804 0-39.85 18.045-39.85 40.601v128.571c0 22.557 18.045 40.601 39.85 40.601h11.955z" />
<glyph unicode="&#xe911;" glyph-name="shop-options" horiz-adv-x="1097" d="M230.837 960c-40.229 0-84.846-30.72-99.182-68.389l-115.2-302.080c-14.336-37.669 6.875-68.389 47.031-68.389h969.143c40.229 0 62.245 31.013 48.713 68.974l-106.277 300.91c-13.458 37.961-57.344 68.974-97.573 68.974h-646.656zM950.343-64h-804.571c-20.187 0-36.571 16.384-36.571 36.571v402.286c0 20.187 16.384 36.571 36.571 36.571s36.571-16.384 36.571-36.571v-365.714h731.429v365.714c0 20.187 16.384 36.571 36.571 36.571s36.571-16.384 36.571-36.571v-402.286c0-20.187-16.384-36.571-36.571-36.571zM767.486 9.143c0-40.375-32.695-73.143-73.143-73.143h-73.143c-40.375 0-73.143 32.768-73.143 73.143v219.429c0 40.375 32.768 73.143 73.143 73.143h73.143c40.448 0 73.143-32.768 73.143-73.143v-219.429z" />
<glyph unicode="&#xe912;" glyph-name="triangle" horiz-adv-x="1170" d="M585-19.992l585 936h-1170z" />
<glyph unicode="&#xe913;" glyph-name="cancel" d="M1024 62.976l-385.251 385.024 385.024 385.251-127.090 126.749-384.797-385.251-385.024 384.91-126.862-126.976 385.138-384.797-384.797-385.366 126.976-126.521 384.682 385.024 385.138-384.797 126.862 126.749z" />
<glyph unicode="&#xe914;" glyph-name="upload-plus" d="M1024 471.273h-465.455v488.726h-93.091v-488.726h-465.455v-93.091h465.455v-442.182h93.091v442.182h465.455z" />
<glyph unicode="&#xe915;" glyph-name="payment" d="M512 960c-282.726 0-512-229.222-512-512s229.274-512 512-512c282.778 0 512 229.222 512 512s-229.222 512-512 512zM549.581 206.797v-20.941c0-21.197-17.203-38.4-38.4-38.4s-38.4 17.203-38.4 38.4v22.221c-23.45 4.915-44.595 13.67-61.798 26.88-30.874 23.757-47.821 59.392-47.821 100.403 0 21.197 17.203 38.4 38.4 38.4 0 0 0 0 0 0 21.197 0 38.4-17.203 38.4-38.4 0-17.357 5.837-30.31 17.869-39.526 13.005-9.984 32.819-15.514 55.808-15.514 22.17 0 73.779 5.325 73.83 54.989-0.051 29.798-6.912 36.25-72.96 68.915l-35.789 17.766c-64.512 31.846-115.507 56.986-115.507 137.626 0 40.909 16.896 76.698 47.616 100.608 17.306 13.517 38.502 22.426 62.003 27.392v21.504c0 21.197 17.203 38.4 38.4 38.4s38.4-17.203 38.4-38.4v-20.275c68.813-12.544 113.050-61.133 113.050-129.178 0-21.197-17.203-38.4-38.4-38.4s-38.4 17.203-38.4 38.4c0 50.381-50.483 55.808-72.192 55.808-22.835 0-42.598-5.581-55.654-15.77-12.134-9.523-18.022-22.63-18.022-40.090 0-30.106 6.144-35.942 72.704-68.813l35.789-17.766c64.563-31.898 115.558-57.088 115.763-137.728 0-67.738-44.902-116.173-114.688-128.512z" />
<glyph unicode="&#xe916;" glyph-name="logo-91app" horiz-adv-x="3258" d="M2531.218 786.779c-33.221 43.174-74.405 71.23-123.693 84.073-31.989 8.673-100.897 12.938-206.249 12.938h-233.783v-894.565h13.27c32.226 1.375 114.877 14.644 147.673 107.721 0.664 4.549 2.275 19.051 2.275 27.867v0l-0.616 119.427v0.569l-0.521 103.93h79.665c78.765 0 138.668 4.17 180.135 12.227 30.473 6.588 60.377 20.331 89.949 40.662 29.431 20.331 53.837 48.624 73.078 84.595 19.004 36.018 28.624 80.376 28.624 133.218 0.048 68.386-16.398 124.024-49.808 167.34zM2382.882 550.058c-13.317-19.099-31.326-33.080-54.405-42.131-23.080-8.91-68.67-13.411-137.247-13.411h-61.467l-0.711 243.735h50.946c62.652 0 104.356-1.801 125.019-5.782 28.008-4.976 51.42-17.772 69.807-38.15 18.34-20.236 27.629-46.065 27.629-77.486-0.048-25.117-6.825-47.439-19.572-66.775zM3208.208 786.779c-33.364 43.174-74.547 71.23-123.882 84.073-31.848 8.673-100.755 12.938-206.201 12.938h-233.83v-894.565h13.365c32.273 1.375 114.83 14.644 147.72 107.721 0.521 4.549 2.228 19.051 2.228 27.867v0l-0.664 119.427v0.569l-0.569 103.93h79.76c78.86 0 138.668 4.17 180.089 12.227 30.568 6.588 60.377 20.331 90.092 40.662 29.383 20.331 53.743 48.624 73.031 84.595 19.051 36.018 28.624 80.376 28.624 133.218 0.095 68.386-16.539 124.024-49.762 167.34zM3059.683 550.058c-13.175-19.099-31.184-33.080-54.311-42.131-23.080-8.91-68.67-13.411-137.199-13.411h-61.609l-0.711 243.735h50.994c62.652 0 104.262-1.801 124.971-5.782 28.056-4.976 51.467-17.772 69.807-38.15 18.483-20.236 27.535-46.065 27.535-77.486 0-25.117-6.588-47.439-19.478-66.775zM323.619 927.959c-178.714 0-323.685-144.924-323.685-323.638 0-173.974 137.247-315.581 309.278-323.163l-82.793-126.535c-44.122-120.233 74.12-160.515 74.12-160.515l256.91 386.668c55.591 57.913 89.854 136.677 89.854 223.547 0 178.761-144.924 323.638-323.685 323.638zM323.619 438.924c-92.414 0-167.34 74.926-167.34 167.388 0 92.414 74.926 167.34 167.34 167.34 92.461 0 167.388-74.974 167.388-167.34 0-92.461-74.926-167.388-167.388-167.388zM834.88 888.576h-143.502v-124.545c0 0 1.185-6.729 9.289-9.526h99.807v-608.651c0 0-26.492-177.814 151.511-158.951v901.674h-117.105zM1908.349-9.306l-79.334 200.846c0.189-0.095 0.427-0.095 0.521-0.284l-256.484 650.214h-0.948c-1.706 3.697-3.223 7.346-4.834 11.185 0 0-14.929 34.454-80.566 35.828v0h-0.569c-1.137 0-2.037 0.095-3.223 0.095h-10.805v-0.095h-27.724c-69.097 0-84.404-35.97-84.404-35.97-3.839-8.91-7.63-17.346-11.517-25.876h1.659l-103.598-270.086-168.904 11.611c0 0 1.043-140.611 77.959-248.237l-126.251-329.135h187.671l72.319 202.078h0.095l8.057 22.843c77.486-25.165 182.126-23.696 324.064 26.587l30.9-82.745 62.368-168.761h193.548zM1355.905 377.078l37.818 104.594 68.434 190.894 69.855-190.894 51.136-136.535c-40.473-13.886-147.104-40.189-227.243 31.942z" />
<glyph unicode="&#xe917;" glyph-name="circle-video-play" d="M512 960c-282.829 0-512-229.24-512-512 0-282.829 229.171-512 512-512 282.76 0 512 229.171 512 512 0 282.76-229.24 512-512 512zM375.467 264.636v366.728l341.607-183.364-341.607-183.364z" />
<glyph unicode="&#xe918;" glyph-name="ad-edit" d="M802.418-52.057h-636.84c-89.158 0-165.578 76.421-165.578 165.578v636.84c0 89.158 76.421 165.578 165.578 165.578h407.578v-76.421h-407.578c-50.947 0-89.158-38.21-89.158-89.158v-636.84c0-50.947 38.21-89.158 89.158-89.158h636.84c50.947 0 89.158 38.21 89.158 89.158v356.63h76.421v-356.63c0-89.158-76.421-165.578-165.578-165.578zM776.098 848.528l98.606 99.53 149.295-147.909-98.606-99.53-149.295 147.909zM859.733 642.098l-146.473 152.842-375.736-382.104-70.052-216.526 216.526 70.052z" />
<glyph unicode="&#xe919;" glyph-name="money" horiz-adv-x="512" d="M316.984 38.73v-35.607c0-36.043-29.252-65.295-65.295-65.295s-65.295 29.252-65.295 65.295v37.784c-39.874 8.358-75.829 23.245-105.081 45.706-52.497 40.396-81.314 100.99-81.314 170.725 0 36.043 29.252 65.295 65.295 65.295v0c36.043 0 65.295-29.252 65.295-65.295 0-29.513 9.925-51.539 30.384-67.21 22.114-16.977 55.806-26.379 94.895-26.379 37.697 0 125.453 9.055 125.541 93.502-0.087 50.669-11.753 61.638-124.060 117.183l-60.855 30.21c-109.695 54.151-196.407 96.898-196.407 234.017 0 69.561 28.73 130.415 80.966 171.073 29.427 22.984 65.469 38.132 105.43 46.577v36.565c0 36.043 29.252 65.295 65.295 65.295s65.295-29.252 65.295-65.295v-34.476c117.009-21.33 192.228-103.95 192.228-219.652 0-36.043-29.252-65.295-65.295-65.295s-65.295 29.252-65.295 65.295c0 85.667-85.841 94.895-122.754 94.895-38.829 0-72.434-9.489-94.634-26.815-20.633-16.193-30.645-38.48-30.645-68.168 0-51.191 10.447-61.116 123.625-117.009l60.855-30.21c109.782-54.239 196.494-97.072 196.843-234.191 0-115.18-76.351-197.539-195.015-218.521v0z" />
<glyph unicode="&#xe91a;" glyph-name="speaker" horiz-adv-x="724" d="M646.811 701.4c-57.943 67.586-144.817 9.644-144.817 9.644-183.432-120.687-390.993-135.173-390.993-135.173v0c-62.745 0-111.004-53.101-111.004-111.004 0-53.101 38.615-101.36 91.716-111.004 0-24.13 9.644-111.004 48.259-193.076 0 0 9.644-33.773 33.773-33.773h62.745c0 0 43.457 0 28.971 33.773 0 0-43.457 91.716-62.745 178.59 77.23-14.486 188.274-48.259 294.436-120.687 0 0 82.072-57.943 144.817 9.644 0 0 72.389 67.586 72.389 236.533 9.644 168.946-67.586 236.533-67.586 236.533zM458.537 609.684c-130.331-91.716-289.634-96.558-299.277-96.558-62.745 0-82.072-33.773-82.072-33.773-4.842-4.842-9.644-9.644-14.486-9.644s-4.842 0-9.644 0c-9.644 4.842-9.644 14.486-4.842 24.13 0 0 28.971 53.101 111.004 53.101 0 0 154.461 4.842 279.99 91.716 9.644 4.842 19.327 4.842 24.13-4.842s0-19.327-4.842-24.13zM574.383 228.334c-57.943 0-101.36 106.202-101.36 236.533s48.259 236.533 101.36 236.533 101.36-106.202 101.36-236.533c4.842-130.331-43.457-236.533-101.36-236.533zM521.282 546.939c-4.842 0-9.644 0-9.644 0v-168.946c4.842 0 9.644 0 9.644 0 48.259 0 86.874 38.615 86.874 86.874-4.842 43.457-43.457 82.072-86.874 82.072z" />
<glyph unicode="&#xe91b;" glyph-name="check" d="M398.69 95.475c-8.393 0-25.18 0-33.573 0s-46.164 33.573-67.148 50.361l-276.984 276.984c-20.984 20.984-20.984 50.361 0 71.343l20.984 20.984c20.984 20.984 50.361 20.984 71.343 0l230.82-230.82c20.984-20.984 50.361-20.984 71.343 0l495.214 495.214c20.984 20.984 50.361 20.984 71.343 0l20.984-20.984c20.984-20.984 20.984-50.361 0-71.343l-541.377-541.377c-16.786-20.984-54.557-50.361-62.95-50.361z" />
<glyph unicode="&#xe91c;" glyph-name="members" horiz-adv-x="1638" d="M1035.628 728.016c0-127.98-100.845-231.879-225.394-231.879-124.344 0-225.189 103.898-225.189 231.879 0 128.191 100.845 231.984 225.189 231.984 124.549 0 225.394-103.793 225.394-231.984zM492.067 547.677c0-91.384-72.032-165.523-160.821-165.523-88.89 0-160.821 74.139-160.821 165.523 0 91.489 71.929 165.523 160.821 165.523 88.788 0 160.821-74.033 160.821-165.523zM818.817 390.819c-218.854 0-396.329-182.559-396.329-407.812v-47.006h792.556v47.006c0 225.254-177.27 407.812-396.227 407.812zM308.319 282.324c-166.644 0-301.717-139.022-301.717-310.539v-35.754h333.902c0 202.328 62.938 302.757 78.571 324.421-34.331 13.987-71.623 21.874-110.756 21.874zM1145.821 547.677c0-91.384 72.032-165.523 160.922-165.523 88.788 0 160.922 74.139 160.922 165.523 0 91.489-72.134 165.523-160.922 165.523-88.89 0-160.922-74.033-160.922-165.523zM1329.682 282.324c166.644 0 301.717-139.022 301.717-310.539v-35.754h-333.902c0 202.328-62.938 302.757-78.571 324.421 34.331 13.987 71.521 21.874 110.756 21.874z" />
<glyph unicode="&#xe91d;" glyph-name="batch" horiz-adv-x="951" d="M-0.002 132.042v818.352h771.348v-818.352h-771.348zM76.551 208.672h618.243v665.245h-618.243v-665.245zM38.274 739.644h694.718v172.627h-694.718zM170.098 541.294h437.271v90.639h-437.271zM874.447 682.428v-660.27h-676.269v-76.553h752.823v736.823z" />
<glyph unicode="&#xe91e;" glyph-name="circle-pay" d="M512 960c-281.6 0-512-230.4-512-512s230.4-512 512-512 512 230.4 512 512-230.4 512-512 512zM512 17.92c-240.64 0-430.080 194.56-430.080 430.080s189.44 430.080 430.080 430.080 430.080-189.44 430.080-430.080-189.44-430.080-430.080-430.080zM583.68 350.72c0 15.36-5.12 30.72-15.36 40.96-10.24 15.36-30.72 25.6-56.32 35.84-40.96 15.36-71.68 30.72-97.28 51.2s-30.72 46.080-30.72 81.92c0 35.84 10.24 61.44 30.72 81.92s46.080 35.84 81.92 35.84v66.56h46.080v-66.56c35.84-5.12 61.44-20.48 81.92-40.96s30.72-51.2 30.72-92.16v0h-71.68c0 25.6-5.12 40.96-15.36 56.32s-30.72 20.48-51.2 20.48c-20.48 0-35.84-5.12-46.080-15.36s-15.36-25.6-15.36-46.080c0-15.36 5.12-30.72 15.36-40.96s30.72-20.48 61.44-30.72c40.96-15.36 71.68-30.72 97.28-51.2s30.72-46.080 30.72-81.92c0-35.84-10.24-61.44-30.72-81.92s-51.2-30.72-87.040-35.84v-56.32h-51.2v51.2c-35.84 5.12-66.56 15.36-87.040 35.84s-35.84 56.32-35.84 97.28v0h71.68c0-25.6 5.12-46.080 20.48-61.44s30.72-15.36 51.2-15.36c20.48 0 40.96 5.12 51.2 15.36s20.48 30.72 20.48 46.080z" />
<glyph unicode="&#xe91f;" glyph-name="history" horiz-adv-x="1126" d="M1110.595 817.627v-306.653c0-71.187-60.235-131.422-131.422-131.422h-350.461c-5.476 0-10.952 0-16.428 0s-10.952 0-10.952 0c0 0-5.476-5.476-10.952-10.952 0 0-5.476-5.476-5.476-5.476l-98.567-93.091c-5.476-5.476-21.904-10.952-27.38-5.476-10.952 5.476-16.428 16.428-16.428 27.38v290.226h-295.702c-43.807 0-76.663-38.332-76.663-76.663v-306.653c0-43.807 32.856-76.663 76.663-76.663h394.268c5.476 0 10.952-5.476 16.428-5.476l82.139-76.663v257.369c0 16.428 10.952 27.38 27.38 27.38s27.38-10.952 27.38-27.38v-317.605c0-10.952-5.476-21.904-16.428-27.38-5.476 0-5.476 0-10.952 0s-10.952 0-16.428 5.476l-120.471 109.519h-383.317c-71.187 0-131.422 60.235-131.422 131.422v306.653c0 71.187 60.235 131.422 131.422 131.422h284.75v180.706c0 71.187 60.235 131.422 131.422 131.422h416.172c71.187 0 131.422-60.235 131.422-131.422zM1055.835 817.627c0 43.807-32.856 76.663-76.663 76.663h-416.172c-43.807 0-76.663-32.856-76.663-76.663v-459.98l54.759 49.283c0 0 5.476 5.476 5.476 5.476 27.38 21.904 32.856 27.38 65.711 27.38 5.476 0 10.952 0 16.428 0h350.461c43.807 0 76.663 32.856 76.663 76.663v301.177zM667.043-53.049c-5.476 0-16.428 5.476-21.904 10.952l-120.471 109.519h-383.317c-76.663 0-136.898 60.235-136.898 136.898v301.177c0 76.663 60.235 136.898 136.898 136.898h279.274v175.23c5.476 76.663 65.711 136.898 142.374 136.898h416.172c76.663 0 136.898-60.235 136.898-136.898v-306.653c0-76.663-60.235-136.898-136.898-136.898h-350.461c-5.476 0-10.952 0-16.428 0s-10.952 0-10.952 0-10.952-5.476-10.952-10.952l-109.519-98.567c-10.952-10.952-21.904-10.952-32.856-5.476s-21.904 16.428-21.904 27.38v290.226h-279.274c-38.332 0-71.187-32.856-71.187-71.187v-306.653c0-38.332 32.856-71.187 71.187-71.187h394.268c5.476 0 16.428-5.476 21.904-10.952l76.663-71.187v246.417c0 16.428 16.428 32.856 32.856 32.856s32.856-16.428 32.856-32.856v-317.605c0-10.952-5.476-21.904-16.428-27.38-10.952 0-16.428 0-21.904 0zM146.828 631.444c-71.187 0-125.947-54.759-125.947-125.947v-306.653c0-71.187 54.759-125.947 125.947-125.947h383.317l120.471-109.519c5.476-5.476 16.428-5.476 27.38-5.476 10.952 5.476 10.952 10.952 10.952 21.904v317.605c0 10.952-10.952 21.904-21.904 21.904s-21.904-10.952-21.904-21.904v-268.322l-87.615 82.139c-5.476 5.476-10.952 5.476-16.428 5.476h-394.268c-43.807 0-82.139 38.332-82.139 82.139v306.653c0 43.807 38.332 82.139 82.139 82.139h290.226v-295.702c0-10.952 5.476-16.428 16.428-21.904s16.428 0 27.38 5.476l104.043 98.567c5.476 5.476 10.952 10.952 16.428 10.952v0c0 0 5.476 0 10.952 0s10.952 0 16.428 0h350.461c71.187 0 125.947 54.759 125.947 125.947v306.653c0 71.187-54.759 125.947-125.947 125.947h-416.172c-71.187 0-125.947-54.759-125.947-125.947v-186.182h-290.226zM480.861 346.695v470.931c0 43.807 38.332 82.139 82.139 82.139h416.172c43.807 0 82.139-32.856 82.139-82.139v-306.653c0-43.807-38.332-82.139-82.139-82.139h-350.461c-5.476 0-10.952 0-16.428 0-32.856 0-38.332 0-60.235-27.38 0 0 0 0-5.476-5.476 0 0 0 0-5.476-5.476l-60.235-43.807zM563 888.814c-38.332 0-76.663-32.856-76.663-71.187v-454.504l49.283 43.807c0 0 0 0 5.476 5.476 0 0 0 0 5.476 5.476 21.904 21.904 32.856 27.38 60.235 27.38 0 0 5.476 0 5.476 0 5.476 0 10.952 0 16.428 0h350.461c38.332 0 71.187 32.856 71.187 71.187v301.177c0 38.332-32.856 71.187-71.187 71.187h-416.172zM667.043-58.525c-10.952 0-16.428 5.476-21.904 10.952l-114.995 109.519h-383.317c-76.663 0-136.898 60.235-136.898 136.898v306.653c0 76.663 60.235 136.898 136.898 136.898h279.274v175.23c0 76.663 60.235 136.898 136.898 136.898h416.172c76.663 0 136.898-60.235 136.898-136.898v-306.653c0-76.663-60.235-136.898-136.898-136.898h-350.461c-5.476 0-10.952 0-16.428 0s-5.476 0-10.952 0-10.952-5.476-10.952-10.952l-109.519-98.567c-10.952-10.952-21.904-10.952-38.332-5.476-10.952 5.476-21.904 16.428-21.904 32.856v279.274h-273.798c-38.332 0-71.187-32.856-71.187-71.187v-306.653c0-38.332 32.856-71.187 71.187-71.187h394.268c5.476 0 16.428-5.476 21.904-10.952l71.187-65.711v240.941c0 16.428 16.428 32.856 32.856 32.856s32.856-16.428 32.856-32.856v-317.605c0-10.952-5.476-27.38-21.904-32.856 0 10.952-5.476 5.476-10.952 5.476zM146.828 625.968c-71.187 0-125.947-54.759-125.947-125.947v-306.653c0-65.711 54.759-125.947 125.947-125.947h383.317l120.471-109.519c5.476-5.476 16.428-5.476 21.904-5.476 5.476 5.476 10.952 10.952 10.952 16.428v317.605c0 10.952-10.952 21.904-21.904 21.904s-21.904-10.952-21.904-21.904v-273.798l-93.091 87.615c-5.476 5.476-10.952 5.476-10.952 5.476h-388.792c-49.283 0-82.139 38.332-82.139 82.139v317.605c0 43.807 38.332 82.139 82.139 82.139h290.226v-295.702c0-5.476 5.476-16.428 10.952-16.428 5.476-5.476 16.428 0 21.904 5.476l104.043 98.567c5.476 5.476 10.952 10.952 16.428 10.952h5.476c0 0 10.952 0 16.428 0s10.952 0 16.428 0h350.461c65.711 0 125.947 54.759 125.947 125.947v301.177c0 65.711-54.759 125.947-125.947 125.947h-416.172c-71.187 0-125.947-54.759-125.947-125.947v-191.658h-290.226zM480.861 341.219v476.407c0 43.807 38.332 82.139 87.615 82.139h416.172c43.807 0 82.139-38.332 82.139-82.139v-306.653c0-43.807-38.332-82.139-82.139-82.139h-350.461c-5.476 0-10.952 0-16.428 0-32.856 0-32.856 0-60.235-21.904 0 0 0 0-5.476-5.476 0 0 0 0-5.476-5.476l-65.711-54.759zM563 888.814c-38.332 0-71.187-32.856-71.187-71.187v-449.028l43.807 38.332c0 0 5.476 0 5.476 5.476 0 0 0 0 5.476 0 27.38 21.904 32.856 27.38 71.187 27.38 5.476 0 10.952 0 16.428 0h350.461c38.332 0 71.187 32.856 71.187 71.187v306.653c0 38.332-32.856 71.187-71.187 71.187h-421.648zM667.043-58.525c-10.952 0-16.428 5.476-27.38 10.952l-114.995 104.043h-377.841c-76.663 0-142.374 65.711-142.374 142.374v306.653c0 76.663 65.711 142.374 142.374 142.374h273.798v169.754c0 76.663 65.711 142.374 142.374 142.374h416.172c76.663 0 142.374-65.711 142.374-142.374v-306.653c0-76.663-65.711-142.374-142.374-142.374h-350.461c-5.476 0-10.952 0-16.428 0v0c0 0-5.476 0-5.476 0-5.476 0-5.476-5.476-10.952-10.952l-109.519-98.567c-10.952-10.952-27.38-10.952-43.807-5.476s-21.904 21.904-21.904 32.856v284.75h-273.798c-38.332 0-65.711-27.38-65.711-65.711v-306.653c0-38.332 27.38-65.711 65.711-65.711h394.268c10.952 0 16.428-5.476 27.38-10.952l60.235-60.235v235.465c0 21.904 16.428 38.332 38.332 38.332s38.332-16.428 38.332-38.332v-317.605c0-16.428-10.952-27.38-21.904-32.856-5.476-5.476-10.952-5.476-16.428-5.476zM146.828 636.92c-71.187 0-131.422-60.235-131.422-131.422v-306.653c0-71.187 60.235-131.422 136.898-131.422h383.317l114.995-109.519c10.952-10.952 21.904-10.952 32.856-5.476s16.428 16.428 16.428 27.38v317.605c0 16.428-10.952 27.38-27.38 27.38s-27.38-10.952-27.38-27.38v-251.893l-82.139 71.187c-5.476 5.476-10.952 10.952-21.904 10.952h-394.268c-43.807 0-76.663 32.856-76.663 71.187v306.653c0 38.332 32.856 76.663 76.663 76.663h279.274v-290.226c0-10.952 5.476-21.904 16.428-27.38s21.904 0 32.856 5.476l109.519 98.567c5.476 5.476 10.952 5.476 10.952 10.952v0 0c0 0 5.476 0 5.476 0v0c5.476 0 10.952 0 16.428 0h350.461c87.615 0 142.374 60.235 142.374 131.422v306.653c0 71.187-54.759 131.422-131.422 131.422h-416.172c-71.187 0-131.422-60.235-131.422-131.422v-180.706h-284.75zM667.043-47.573c-5.476 0-10.952 0-16.428 5.476l-120.471 109.519h-383.317c-71.187 5.476-131.422 60.235-131.422 131.422v306.653c0 71.187 60.235 131.422 131.422 131.422h284.75v180.706c0 71.187 60.235 125.947 131.422 125.947h416.172c71.187 0 125.947-54.759 125.947-125.947v-306.653c0-71.187-54.759-125.947-125.947-125.947h-350.461c-5.476 0-10.952 0-16.428 0s-10.952 0-10.952 0v0c0 0-5.476-5.476-10.952-10.952l-104.043-98.567c-5.476-5.476-16.428-5.476-27.38-5.476-10.952 5.476-16.428 10.952-16.428 21.904v290.226h-295.702c-43.807 0-82.139-38.332-82.139-82.139v-306.653c0-43.807 38.332-76.663 82.139-76.663h394.268c5.476 0 10.952 0 16.428-5.476l87.615-76.663v262.845c0 10.952 10.952 21.904 21.904 21.904s21.904-10.952 21.904-21.904v-317.605c0-10.952-5.476-16.428-16.428-21.904 0-5.476 0-5.476-5.476-5.476zM146.828 625.968c-65.711 0-120.471-54.759-120.471-120.471v-306.653c0-65.711 54.759-120.471 120.471-120.471h388.792l5.476-5.476 120.471-109.519c0 0 5.476 0 10.952 0s10.952 10.952 10.952 16.428v317.605c0 10.952-5.476 16.428-16.428 16.428s-16.428-5.476-16.428-16.428v-284.75l-98.567 93.091c-5.476 5.476-5.476 5.476-10.952 5.476h-394.268c-49.283 0-87.615 38.332-87.615 87.615v306.653c0 49.283 38.332 87.615 87.615 87.615h295.702v-301.177c0-5.476 5.476-10.952 10.952-16.428 5.476 0 10.952 0 16.428 5.476l109.519 98.567c5.476 5.476 10.952 10.952 16.428 10.952h5.476c5.476 0 10.952 0 16.428 0s10.952 0 16.428 0h350.461c65.711 0 120.471 54.759 120.471 120.471v306.653c0 65.711-54.759 120.471-120.471 120.471h-421.648c-65.711 0-120.471-54.759-120.471-120.471v-191.658h-295.702zM475.385 330.267v487.359c0 49.283 38.332 87.615 87.615 87.615h416.172c49.283 0 87.615-38.332 87.615-87.615v-306.653c0-49.283-38.332-87.615-87.615-87.615h-350.461c-5.476 0-10.952 0-16.428 0-27.38 0-32.856 0-54.759-21.904 0 0 0 0-5.476-5.476l-5.476-5.476-71.187-60.235zM563 894.29c-43.807 0-82.139-32.856-82.139-76.663v-470.931l60.235 54.759c0 0 0 0 0 0v0c0 0 0 0 5.476 5.476 27.38 21.904 32.856 27.38 60.235 27.38 5.476 0 10.952 0 16.428 0h350.461c43.807 0 76.663 38.332 76.663 82.139v301.177c0 43.807-32.856 76.663-76.663 76.663h-410.696zM486.337 357.647v459.98c0 38.332 32.856 71.187 76.663 71.187h416.172c43.807 0 71.187-32.856 71.187-71.187v-306.653c0-38.332-32.856-76.663-71.187-76.663h-350.461c-5.476 0-10.952 0-16.428 0 0 0-5.476 0-5.476 0-27.38 0-38.332-5.476-60.235-27.38 0 0 0 0-5.476 0 0 0-5.476 0-5.476-5.476l-49.283-43.807zM563 883.338c-38.332 0-65.711-27.38-65.711-65.711v-438.076l38.332 32.856c0 0 0 0 5.476 5.476 0 0 0 0 5.476 5.476 27.38 21.904 32.856 27.38 65.711 27.38 0 0 5.476 0 5.476 0 5.476 0 10.952 0 16.428 0h350.461c38.332 0 65.711 27.38 65.711 65.711v301.177c0 38.332-27.38 65.711-65.711 65.711h-421.648z" />
<glyph unicode="&#xe920;" glyph-name="circle-question" d="M512 960c-281.6 0-512-230.4-512-512s230.4-512 512-512 512 230.4 512 512-230.4 512-512 512zM512 17.92c-240.64 0-430.080 194.56-430.080 430.080s189.44 430.080 430.080 430.080 430.080-194.56 430.080-430.080-189.44-430.080-430.080-430.080zM481.28 253.44h61.44v-61.44h-61.44v61.44zM634.88 657.92c-15.36 15.36-30.72 25.6-51.2 30.72-20.48 10.24-40.96 15.36-71.68 15.36-20.48 0-46.080-5.12-66.56-10.24-15.36-10.24-35.84-20.48-51.2-35.84s-25.6-30.72-30.72-51.2c-10.24-20.48-10.24-30.72-10.24-61.44h66.56c0 30.72 10.24 56.32 25.6 76.8s35.84 30.72 66.56 30.72c30.72 0 51.2-10.24 66.56-20.48 15.36-15.36 20.48-35.84 20.48-61.44 0-20.48-5.12-35.84-20.48-51.2-10.24-15.36-25.6-30.72-40.96-46.080s-25.6-30.72-40.96-46.080-15.36-35.84-15.36-56.32v-51.2h61.44v25.6c0 15.36 0 30.72 10.24 40.96 5.12 10.24 15.36 25.6 25.6 35.84s20.48 20.48 30.72 30.72c10.24 10.24 20.48 20.48 30.72 30.72s15.36 20.48 25.6 35.84c5.12 15.36 10.24 30.72 10.24 46.080s-5.12 30.72-10.24 46.080c-10.24 20.48-15.36 35.84-30.72 46.080z" />
<glyph unicode="&#xe921;" glyph-name="pending" d="M512-64c-282.77 0-512 229.23-512 512s229.23 512 512 512c282.77 0 512-229.23 512-512s-229.23-512-512-512zM512 72.533c207.365 0 375.467 168.102 375.467 375.467s-168.102 375.467-375.467 375.467c-207.365 0-375.467-168.102-375.467-375.467s168.102-375.467 375.467-375.467zM561.778 632.889v-174.44l124.353-59.873c33.97-16.356 48.249-57.153 31.893-91.124s-57.153-48.249-91.124-31.893l-163.004 78.483c-23.629 11.377-38.652 35.283-38.652 61.508v217.339c0 37.703 30.564 68.267 68.267 68.267s68.267-30.564 68.267-68.267z" />
<glyph unicode="&#xe922;" glyph-name="mobile" d="M753.373-64h-482.744c-47.543 0-87.772 40.229-87.772 91.428v841.144c0 51.2 40.229 91.428 87.772 91.428h486.4c43.885 0 84.114-40.229 84.114-91.428v-841.144c0-51.2-40.229-91.428-87.772-91.428zM270.631 923.43c-29.258 0-51.2-25.6-51.2-54.858v-841.144c0-29.258 21.943-54.858 51.2-54.858h486.4c29.258 0 51.2 25.6 51.2 54.858v841.144c0 29.258-21.943 54.858-51.2 54.858h-486.4zM731.431 115.2h-442.515v698.516h442.515v-698.516zM321.831 151.771h376.686v625.373h-376.686v-625.373zM453.488 886.858h109.714v-36.571h-109.714v36.571zM559.545 45.714c0-24.237-19.648-43.885-43.885-43.885s-43.885 19.648-43.885 43.885c0 24.237 19.648 43.885 43.885 43.885s43.885-19.648 43.885-43.885z" />
<glyph unicode="&#xe923;" glyph-name="medal" d="M675.458 610.254l-88.687 30.334-56.269 74.98c-8.707 11.625-28.297 11.625-37.050 0l-56.223-74.98-88.687-30.334c-6.9-2.362-12.273-7.827-14.543-14.774-2.222-6.9-1.112-14.495 3.056-20.469l53.954-76.647 1.436-93.736c0.093-7.271 3.658-14.126 9.541-18.339 5.835-4.354 13.431-5.604 20.424-3.38l89.568 27.602 89.568-27.602c2.27-0.741 4.539-1.019 6.807-1.019 4.816 0 9.587 1.482 13.616 4.446 5.881 4.261 9.401 11.068 9.541 18.339l1.436 93.736 53.906 76.647c4.168 5.928 5.326 13.523 3.056 20.469-2.177 6.9-7.548 12.366-14.45 14.727zM590.986 519.159c-2.686-3.797-4.122-8.336-4.214-12.967l-1.065-70.023-66.875 20.655c-2.222 0.695-4.539 1.019-6.807 1.019s-4.585-0.324-6.807-1.019l-66.875-20.655-1.065 70.023c-0.046 4.63-1.529 9.17-4.214 12.967l-40.292 57.241 66.227 22.646c4.399 1.529 8.243 4.306 11.023 8.012l42.005 55.99 42.005-55.99c2.779-3.706 6.623-6.483 11.023-8.012l66.227-22.646-40.292-57.241zM955.783 761.369c-26.259 11.254-78.405 0.417-114.159-9.401v125.551c0 12.783-10.375 23.156-23.156 23.156h-612.936c-12.783 0-23.156-10.375-23.156-23.156v-113.834c-35.753 9.818-87.853 20.655-114.159 9.355-58.074-24.963-68.218-115.827-53.027-189.74 17.46-84.843 75.349-182.607 180.57-188.582 37.975-129.765 153.616-226.371 293.060-236.144v-116.937h-190.666c-12.783 0-23.156-10.375-23.156-23.156s10.375-23.156 23.156-23.156h427.689c12.783 0 23.156 10.375 23.156 23.156s-10.375 23.156-23.156 23.156h-190.712v116.937c135 9.448 247.721 100.357 289.218 223.963 107.767 3.706 166.815 103.182 184.46 189.044 15.191 73.913 5.094 164.87-53.027 189.785zM60.576 592.609c-13.199 64.234-1.574 126.061 25.935 137.87 10.606 4.492 53.12-2.362 95.865-14.959v-228.455c0-15.191 1.389-30.056 3.38-44.737-71.181 11.949-111.89 85.676-125.18 150.281zM511.977 203.682c-156.21 0-283.29 127.080-283.29 283.335v367.345h566.625v-367.345c0-156.21-127.080-283.335-283.335-283.335zM963.471 580.939c-13.431-65.16-54.694-139.585-127.080-150.56 3.196 18.432 5.233 37.327 5.233 56.686v216.785c42.745 12.643 85.4 19.497 95.865 15.005 27.509-11.856 39.134-73.682 25.98-137.917z" />
<glyph unicode="&#xe924;" glyph-name="member" d="M376.595 397.225c-114.248 0-207.339 93.091-207.339 207.339s93.091 207.339 207.339 207.339 207.339-93.091 207.339-207.339-93.091-207.339-207.339-207.339zM376.595 769.588c-88.859 0-165.024-71.935-165.024-165.024s71.935-165.024 165.024-165.024 165.024 71.935 165.024 165.024c-4.231 88.859-76.165 165.024-165.024 165.024zM732.033-8.99c-12.694 0-21.157 8.463-21.157 21.157v76.165c0 169.256-148.1 308.892-334.281 308.892s-334.281-139.637-334.281-308.892v-76.165c0-12.694-8.463-21.157-21.157-21.157s-21.157 8.463-21.157 21.157v76.165c0 194.644 169.256 351.207 376.595 351.207s376.595-156.561 376.595-351.207v-76.165c0-12.694-12.694-21.157-21.157-21.157zM647.405 494.547c-12.694 0-21.157 8.463-21.157 21.157s8.463 21.157 21.157 21.157c88.859 0 165.024 71.935 165.024 165.024s-71.935 165.024-165.024 165.024c-38.083 0-71.935-12.694-101.554-33.852-8.463-8.463-21.157-4.231-29.62 4.231-4.231 4.231-4.231 16.926 4.231 25.389 38.083 29.62 80.396 42.313 126.942 42.313 114.248 0 207.339-93.091 207.339-207.339s-93.091-203.107-207.339-203.107zM1002.843 84.101c-12.694 0-21.157 8.463-21.157 21.157v76.165c0 169.256-148.1 308.892-334.281 308.892-12.694 0-21.157 8.463-21.157 21.157s8.463 21.157 21.157 21.157c207.339 0 376.595-156.561 376.595-351.207v-76.165c0-8.463-8.463-21.157-21.157-21.157z" />
<glyph unicode="&#xe925;" glyph-name="shop2" d="M1016.684 627.2c0 0 0 0 0 0l-98.743 208.457c-3.657 7.314-10.971 10.971-18.285 10.971h-7.314v95.086c0 10.971-7.314 18.285-18.285 18.285h-731.429c-10.971 0-18.285-7.314-18.285-18.285v-95.086c-7.314 0-14.629-3.657-18.285-7.314l-98.743-208.457c-3.657-3.657 0-7.314 0-10.971v-120.686c0-32.914 18.285-62.172 43.885-84.114v-460.8c0-10.971 7.314-18.285 18.285-18.285h859.429c10.971 0 18.285 7.314 18.285 18.285v442.515c0 0 0 0 0 0 40.229 14.629 69.485 54.858 69.485 98.743v128.001c3.657 0 3.657 3.657 0 3.657zM164.569 923.428h694.857v-76.8h-694.857v76.8zM135.313 810.058h757.029l80.457-171.886h-917.944l80.457 171.886zM237.712 601.6h160.915v-109.714c0-40.229-36.571-69.485-80.457-69.485s-80.457 32.914-80.457 69.485v109.714zM592.455 601.6v-109.714c0-40.229-36.571-69.485-80.457-69.485s-76.8 32.914-76.8 73.143v109.714c0-3.657 157.257-3.657 157.257-3.657zM336.455 389.485c32.914 3.657 62.172 21.943 80.457 47.543 21.943-29.258 54.858-51.2 98.743-51.2s76.8 18.285 98.743 51.2c18.285-25.6 47.543-43.885 80.457-47.543v-420.572h-354.743l-3.657 420.572zM709.483 426.057c-43.885 0-80.457 32.914-80.457 69.485v109.714h157.257v-109.714c0-40.229-32.914-69.485-76.8-69.485zM43.884 601.6h157.257v-109.714c0-40.229-36.571-69.485-80.457-69.485s-80.457 32.914-80.457 69.485c3.657 3.657 3.657 109.714 3.657 109.714zM87.769 393.143c10.971-3.657 21.943-7.314 36.571-7.314 40.229 0 76.8 18.285 98.743 51.2 18.285-25.6 47.543-43.885 80.457-47.543v-420.572h-215.771v424.229zM910.627-31.087h-182.857v420.572c32.914 3.657 62.172 21.943 80.457 47.543 21.943-29.258 54.858-51.2 98.743-51.2 3.657 0 7.314 0 7.314 0-3.657 3.657-3.657-416.915-3.657-416.915zM903.313 426.057c-43.885 0-80.457 32.914-80.457 69.485v109.714h160.915v-109.714c0-40.229-36.571-69.485-80.457-69.485zM555.884 301.714l-138.972-138.972c-7.314-7.314-7.314-18.285 0-25.6 3.657-3.657 7.314-3.657 14.629-3.657s10.971 0 14.629 3.657l138.972 138.972c7.314 7.314 7.314 18.285 0 25.6s-21.943 7.314-29.258 0zM552.226 162.743l-91.428-91.428c-7.314-7.314-7.314-18.285 0-25.6 3.657-3.657 7.314-7.314 14.629-7.314 3.657 0 10.971 0 10.971 3.657l91.428 91.428c7.314 7.314 7.314 18.285 0 25.6s-18.285 10.971-25.6 3.657z" />
<glyph unicode="&#xe926;" glyph-name="computer" d="M838.529 740.313h-651.995l0.172-443.428h651.995l-0.172 443.428zM221.078 331.291l-0.172 374.65h583.252l0.172-374.685h-583.252zM1006.812 229.482h-53.688v538.431c0 47.982-38.53 86.995-85.929 86.995h-710.357c-47.364 0-85.929-39.046-85.929-86.995v-538.431h-53.723c-9.487 0-17.186-7.081-17.186-15.81v-125.182c0-26.123 23.132-47.399 51.558-47.399h920.884c28.426 0 51.558 21.242 51.558 47.399v125.182c0 8.764-7.7 15.81-17.186 15.81zM105.28 767.914c0 28.803 23.132 52.21 51.558 52.21h710.357c28.426 0 51.558-23.407 51.558-52.21v-538.431h-315.050c-9.487 0-17.186-7.081-17.186-15.81v-43.446h-148.932v43.446c0 8.731-7.7 15.81-17.186 15.81h-315.119v538.431zM989.627 88.525c0-8.695-7.734-15.81-17.186-15.81h-920.884c-9.487 0-17.186 7.081-17.186 15.81v109.37h368.772v-43.446c0-8.731 7.7-15.81 17.186-15.81h183.303c9.487 0 17.186 7.081 17.186 15.81v43.446h368.772v-109.37z" />
<glyph unicode="&#xe927;" glyph-name="clipboard" d="M833.447 733.783h-19.863v35.714c0 31.75-27.788 59.539-59.539 59.539h-107.14v3.962c0 31.75-27.788 59.539-59.539 59.539h-3.962c0 39.676-43.639 67.464-103.178 67.464s-103.178-27.788-103.178-67.464h-7.925c-31.75 0-59.539-27.788-59.539-59.539v-3.962h-119.079c-31.75 0-59.539-27.788-59.539-59.539v-682.669c0-31.75 27.788-59.539 59.539-59.539h27.788v-31.75c0-31.75 27.788-59.539 59.539-59.539h555.664c31.75 0 59.539 27.788 59.539 59.539v678.705c-0.051 31.75-27.839 59.539-59.589 59.539zM480.226 920.327c39.676 0 63.502-15.851 63.502-27.788h-127.003c0 11.887 23.827 27.788 63.502 27.788zM349.259 832.998c0 11.887 7.925 19.863 19.863 19.863h218.293c11.887 0 19.863-7.925 19.863-19.863v-47.652c0-11.887-7.925-19.863-19.863-19.863h-218.293c-11.887 0-19.863 7.925-19.863 19.863v47.652zM170.642 86.879v682.618c0 11.887 7.925 19.863 19.863 19.863h119.079v-7.925c0-31.75 27.788-59.539 59.539-59.539h218.293c35.714 0 59.539 27.788 59.539 63.502v3.962h107.14c11.887 0 19.863-7.925 19.863-19.863v-682.669c0-11.887-7.925-19.863-19.863-19.863h-563.59c-11.887 0.051-19.863 7.976-19.863 19.914zM853.31-4.41c0-11.887-7.925-19.863-19.863-19.863h-555.614c-11.887 0-19.863 7.925-19.863 19.863v31.75h496.126c31.75 0 59.539 27.788 59.539 59.539v607.229h19.863c11.887 0 19.863-7.925 19.863-19.863v-678.655zM373.084 594.892h-79.351c-11.887 0-19.863-7.925-19.863-19.863s7.925-19.863 19.863-19.863h79.351c11.887 0 19.863 7.925 19.863 19.863s-7.976 19.863-19.863 19.863zM650.868 594.892h-198.43c-11.887 0-19.863-7.925-19.863-19.863s7.925-19.863 19.863-19.863h198.43c11.887 0 19.863 7.925 19.863 19.863s-7.925 19.863-19.863 19.863zM373.084 237.658h-79.351c-11.887 0-19.863-7.925-19.863-19.863s7.925-19.863 19.863-19.863h79.351c11.887 0 19.863 7.925 19.863 19.863s-7.976 19.863-19.863 19.863zM650.868 237.658h-198.43c-11.887 0-19.863-7.925-19.863-19.863s7.925-19.863 19.863-19.863h198.43c11.887 0 19.863 7.925 19.863 19.863s-7.925 19.863-19.863 19.863zM373.084 356.735h-79.351c-11.887 0-19.863-7.925-19.863-19.863s7.925-19.863 19.863-19.863h79.351c11.887 0 19.863 7.925 19.863 19.863s-7.976 19.863-19.863 19.863zM650.868 356.735h-198.43c-11.887 0-19.863-7.925-19.863-19.863s7.925-19.863 19.863-19.863h198.43c11.887 0 19.863 7.925 19.863 19.863s-7.925 19.863-19.863 19.863zM373.084 475.814h-79.351c-11.887 0-19.863-7.925-19.863-19.863s7.925-19.863 19.863-19.863h79.351c11.887 0 19.863 7.925 19.863 19.863s-7.976 19.863-19.863 19.863zM650.868 475.814h-198.43c-11.887 0-19.863-7.925-19.863-19.863s7.925-19.863 19.863-19.863h198.43c11.887 0 19.863 7.925 19.863 19.863s-7.925 19.863-19.863 19.863z" />
<glyph unicode="&#xe928;" glyph-name="dollar" d="M512 960c-282.295 0-512-229.703-512-512s229.703-512 512-512 512 229.703 512 512-229.703 512-512 512zM512-8.755c-251.857 0-456.755 204.9-456.755 456.755s204.9 456.755 456.755 456.755 456.755-204.9 456.755-456.755-204.9-456.755-456.755-456.755zM600.114 490.262h-32.87v157.832h20.993c19.556 0 35.577-15.91 35.577-35.522 0-15.248 12.375-27.622 27.622-27.622s27.622 12.375 27.622 27.622c0 50.051-40.714 90.765-90.82 90.765h-20.993v20.882c0 15.248-12.375 27.622-27.622 27.622s-27.622-12.375-27.622-27.622v-20.882h-61.873c-50.051 0-90.765-40.714-90.765-90.765v-86.787c0-50.051 40.714-90.765 90.765-90.765h61.873v-143.136h-61.873c-19.556 0-35.522 15.91-35.522 35.522 0 15.248-12.375 27.622-27.622 27.622s-27.622-12.375-27.622-27.622c0-49.996 40.714-90.765 90.765-90.765h61.873v-64.857c0-15.248 12.375-27.622 27.622-27.622s27.622 12.375 27.622 27.622v64.857h32.87c49.996 0 90.765 40.714 90.765 90.765v86.787c-0.055 46.24-35.632 76.071-90.765 76.071zM450.127 490.262c-19.556 0-35.522 15.966-35.522 35.522v86.787c0 19.556 15.91 35.522 35.522 35.522h61.873v-157.832h-61.873zM635.58 327.348c0-19.556-15.91-35.522-35.522-35.522h-32.814v143.136h32.87c35.522 0 35.522-15.138 35.522-20.826v-86.787z" />
<glyph unicode="&#xe929;" glyph-name="nodata" d="M964.947 645.462c-0.91 2.218-2.447 4.038-3.925 5.973-0.74 0.967-1.138 2.162-1.992 3.015l-0.17 0.228c-0.057 0.057-0.113 0.113-0.17 0.17l-287.743 296.562c-5.348 5.462-12.743 8.59-20.367 8.59h-508.358c-47.047 0-85.333-38.287-85.333-85.333v-853.333c0-47.047 38.287-85.333 85.333-85.333h739.555c47.047 0 85.333 38.287 85.333 85.333v613.318c0 3.755-0.797 7.395-2.162 10.808zM679.022 861.355l192.455-198.315h-164.010c-15.645 0-28.445 12.743-28.445 28.445v169.87zM881.775-7.112h-739.555c-15.702 0-28.445 12.8-28.445 28.445v853.333c0 15.702 12.743 28.445 28.445 28.445h479.915v-211.57c0-47.047 38.287-85.333 85.333-85.333h202.752v-584.875c0-15.645-12.8-28.445-28.445-28.445zM505.625 348.957c-142.507 0-258.39-86.528-258.39-193.023 0-15.702 12.743-28.445 28.445-28.445s28.445 12.743 28.445 28.445c0 75.037 90.397 136.135 201.5 136.135s201.5-61.042 201.5-136.135c0-15.702 12.743-28.445 28.445-28.445s28.445 12.743 28.445 28.445c0 106.438-115.883 193.023-258.39 193.023zM266.123 518.657l67.755 67.812 67.812-67.812 40.22 40.22-67.812 67.812 67.812 67.755-40.22 40.22-67.812-67.755-67.755 67.755-40.22-40.22 67.755-67.755-67.755-67.812z" />
<glyph unicode="&#xe92a;" glyph-name="nostorage" d="M956.949 376.343c7.791 10.774 14.871 22.083 21.37 33.747 2.092 3.828 4.007 7.702 5.966 11.62 5.61 11.086 10.685 22.439 15.093 34.192 0.801 2.182 1.825 4.274 2.583 6.455 4.898 13.936 8.637 28.405 11.665 43.141 0.668 3.295 1.247 6.59 1.87 9.929 2.671 15.227 4.719 30.676 5.298 46.525 0 0 0 0 0 0 3.206 90.335-28.94 176.573-90.557 242.733s-145.319 104.404-235.698 107.609c-17.275 0.579-34.327-0.489-51.2-2.448-2.448-0.312-4.898-0.489-7.346-0.801-68.43-9.394-132.541-39.179-184.187-87.262-43.409-40.381-74.485-90.38-91.848-145.453 0 0 0-0.044-0.044-0.044l-337.697-0.935c-12.244-0.044-22.217-10.017-22.217-22.261v-160.278c0-5.922 2.36-11.576 6.545-15.76s9.438-5.61 15.76-6.5l31.12 0.089v-465.252c0-12.288 9.973-22.261 22.261-22.261h694.539c12.288 0 22.261 9.973 22.261 22.261v248.654c1.291 0.445 2.404 1.113 3.651 1.559 14.781 5.298 29.251 11.309 43.053 18.52 0.757 0.4 1.469 0.847 2.227 1.247 12.2 6.545 23.819 13.98 35.083 21.905 3.963 2.76 7.881 5.566 11.709 8.459 10.418 8.014 20.435 16.428 29.829 25.556 3.607 3.472 6.857 7.213 10.285 10.864 6.767 7.167 13.223 14.603 19.323 22.35 3.16 3.963 6.367 7.791 9.305 11.842zM778.060 852.191c45.145-15.449 86.105-41.894 119.496-77.824 53.515-57.477 81.43-132.318 78.625-210.81-0.489-14.38-2.36-28.405-4.853-42.252-0.489-2.716-0.98-5.476-1.559-8.147-2.804-13.312-6.367-26.401-10.953-39.046-0.712-2.003-1.647-3.963-2.448-5.966-4.186-10.818-9.038-21.326-14.469-31.521-1.514-2.85-2.894-5.743-4.496-8.503-6.099-10.641-12.912-20.836-20.258-30.587-2.583-3.428-5.343-6.723-8.103-10.062-6.322-7.658-13-14.96-20.035-21.95-3.295-3.25-6.634-6.5-10.062-9.617-7.925-7.123-16.251-13.757-24.933-19.99-3.607-2.583-7.213-5.164-10.953-7.569-10.329-6.767-21.059-13-32.323-18.476-2.671-1.291-5.476-2.36-8.193-3.607-11.174-4.987-22.706-9.438-34.638-13.045-30.32-9.261-62.553-14.024-95.988-12.956-78.492 2.76-151.152 35.974-204.666 93.451-33.48 36.018-56.944 78.848-69.142 125.062-0.044 0.223 0.044 0.489-0.044 0.757-0.044 0.179-0.179 0.356-0.267 0.535-7.034 27.202-10.24 55.608-9.217 84.458 0.801 21.86 4.186 43.23 9.528 63.888 0 0 0 0 0 0 30.141 115.445 127.778 199.992 243.889 216.554 0.089 0 0.133 0 0.223 0.044 16.563 2.36 33.48 3.339 50.666 2.804 29.473-1.024 58.101-6.367 85.17-15.627zM44.52 515.162v115.757l304.662 0.801c-2.583-15.004-4.496-30.141-5.075-45.591-0.847-23.774 0.891-47.237 4.853-70.166l-304.44-0.801zM747.964 27.649h-650.018v442.857h262.411c15.004-46.748 39.847-90.112 74.307-127.11 61.619-66.203 145.274-104.448 235.654-107.653 4.096-0.133 8.147-0.223 12.154-0.223 22.35 0 44.21 2.227 65.447 6.411v-214.283zM672.054 540.716v0c-20.079 6.278-31.388 27.826-25.154 47.905l39.357 126.263c6.278 20.079 27.826 31.388 47.905 25.154v0c20.079-6.278 31.388-27.826 25.154-47.905l-39.357-126.263c-6.278-20.079-27.826-31.432-47.905-25.154zM674.782 479.584c14.153-16.463 12.282-41.285-4.183-55.439s-41.285-12.282-55.439 4.183c-14.153 16.463-12.282 41.285 4.183 55.439s41.285 12.282 55.439-4.183z" />
<glyph unicode="&#xe92b;" glyph-name="order2" d="M1021.566 606.144c-1.024 2.496-2.753 4.543-4.416 6.72-0.833 1.088-1.281 2.432-2.241 3.392l-0.191 0.257c-0.064 0.064-0.128 0.128-0.191 0.191l-323.711 333.632c-6.017 6.144-14.336 9.664-22.913 9.664h-571.903c-52.928 0-96-43.073-96-96v-832c0-52.928 43.073-96 96-96h832c52.928 0 96 43.073 96 96v561.985c0 4.224-0.896 8.319-2.432 12.159zM699.9 849.024l216.512-223.104h-184.511c-17.601 0-32.001 14.336-32.001 32.001v191.104zM927.998 0.001h-832c-17.664 0-32.001 14.4-32.001 32.001v832c0 17.664 14.336 32.001 32.001 32.001h540.928c-0.321-1.793-1.088-3.456-1.088-5.312v-232.704c0-52.928 43.073-96 96-96h228.159v-529.984c0-17.601-14.4-32.001-32.001-32.001zM349.5 625.985h-159.999c-17.664 0-32.001-14.336-32.001-32.001s14.336-32.001 32.001-32.001h159.999c17.664 0 32.001 14.336 32.001 32.001s-14.336 32.001-32.001 32.001zM349.5 416h-159.999c-17.664 0-32.001-14.336-32.001-32.001s14.336-32.001 32.001-32.001h159.999c17.664 0 32.001 14.336 32.001 32.001s-14.336 32.001-32.001 32.001zM822.91 416h-310.080c-17.664 0-32.001-14.336-32.001-32.001s14.336-32.001 32.001-32.001h310.080c17.664 0 32.001 14.336 32.001 32.001s-14.273 32.001-32.001 32.001zM822.91 213.313h-310.080c-17.664 0-32.001-14.336-32.001-32.001s14.336-32.001 32.001-32.001h310.080c17.664 0 32.001 14.336 32.001 32.001s-14.273 32.001-32.001 32.001zM349.5 213.313h-159.999c-17.664 0-32.001-14.336-32.001-32.001s14.336-32.001 32.001-32.001h159.999c17.664 0 32.001 14.336 32.001 32.001s-14.336 32.001-32.001 32.001z" />
<glyph unicode="&#xe92c;" glyph-name="storage" d="M1016.13 860.429c-5.067 5.067-11.91 7.868-19.078 7.868h-0.054l-970.104-2.586c-14.875-0.054-26.894-12.126-26.894-26.948v-194.021c0-7.168 2.856-14.013 7.923-19.078s11.91-7.868 19.025-7.868c0 0 0.054 0 0.054 0l37.672 0.107v-563.253c0-14.875 12.073-26.948 26.948-26.948h840.757c14.875 0 26.948 12.073 26.948 26.948v565.624l37.779 0.107c14.875 0.054 26.894 12.126 26.894 26.948v194.021c0 7.168-2.856 14.067-7.868 19.078zM905.43 81.596h-786.863v536.414l786.863 2.102v-538.515zM970.103 674.224l-916.21-2.425v140.127l916.21 2.425v-140.127zM375.16 439.081h274.863c14.875 0 26.948 12.073 26.948 26.948s-12.073 26.948-26.948 26.948h-274.863c-14.875 0-26.948-12.073-26.948-26.948s12.073-26.948 26.948-26.948z" />
<glyph unicode="&#xe92d;" glyph-name="arrow-right-small" horiz-adv-x="683" d="M442.834 437.334l-362.667-362.667c-32-32-32-74.666 0-106.667s74.666-32 106.667 0l426.667 426.667c10.666 10.666 21.333 32 21.333 53.333s-10.666 42.667-21.333 53.333l-426.667 426.667c-32 32-74.666 32-106.667 0s-32-74.666 0-106.667l362.667-384z" />
<glyph unicode="&#xe92e;" glyph-name="double-arrow-down" d="M500.622-64l-477.867 364.088 68.267 91.022 420.978-318.578 420.978 318.578 68.267-91.022zM500.622 504.889l-477.867 364.088 68.267 91.022 420.978-318.578 420.978 318.578 68.267-91.022z" />
<glyph unicode="&#xe92f;" glyph-name="arrow-down" horiz-adv-x="1638" d="M819 267.337l602.208 602.208c48.177 48.177 120.442 48.177 168.618 0s48.177-120.442 0-168.618l-674.473-698.561c-24.088-24.088-72.265-24.088-96.353-24.088s-72.265 0-96.353 24.088l-674.473 698.561c-48.177 48.177-48.177 120.442 0 168.618s120.442 48.177 168.618 0l602.208-602.208z" />
<glyph unicode="&#xe930;" glyph-name="circle-member" d="M813.511 209.067c-34.133 85.333-108.089 147.911-187.733 182.044 45.511 34.133 73.956 85.333 73.956 147.911 0 102.4-85.333 187.733-187.733 187.733s-187.733-85.333-187.733-187.733c0-62.578 28.444-113.778 73.956-147.911-85.333-28.444-153.6-91.022-187.733-176.356-17.067-39.822-22.756-91.022-22.756-136.533h56.889c0 39.822 5.689 79.644 22.756 113.778 39.822 96.711 136.533 164.978 244.622 164.978s204.8-62.578 250.311-164.978c11.378-22.756 17.067-85.333 22.756-102.4l56.889 5.689c-5.689 0-11.378 73.956-28.444 113.778zM381.156 539.022c0 73.956 56.889 130.844 130.844 130.844s130.844-56.889 130.844-130.844-56.889-130.844-130.844-130.844-130.844 62.578-130.844 130.844zM512 903.111c250.311 0 455.111-204.8 455.111-455.111s-204.8-455.111-455.111-455.111-455.111 204.8-455.111 455.111 204.8 455.111 455.111 455.111zM512 960c-284.444 0-512-227.556-512-512s227.556-512 512-512 512 227.556 512 512-227.556 512-512 512v0z" />
<glyph unicode="&#xe931;" glyph-name="notification-bell" d="M959.297 116.044l-112.527 196.923v180.044c0 151.912-106.901 286.945-247.56 326.33v67.516c0 39.385-39.385 73.143-90.022 73.143s-84.396-28.132-84.396-73.143v-67.516c-146.286-39.385-253.187-168.791-253.187-326.33v-180.044l-106.901-196.923c-5.626-11.253-5.626-16.879 0-28.132s16.879-11.253 22.505-11.253h303.824v-16.879c0-67.516 56.264-123.78 123.78-123.78s123.78 56.264 123.78 123.78v16.879h292.571c11.253 0 16.879 5.626 22.505 11.253s11.253 16.879 5.626 28.132zM481.055 886.858c0 11.253 16.879 16.879 33.758 16.879s33.758-11.253 33.758-16.879v-61.89c-11.253 0-22.505 0-33.758 0s-22.505 0-28.132 0v61.89zM582.329 59.781c0-39.385-28.132-67.516-67.516-67.516s-67.516 28.132-67.516 67.516v16.879h135.033v-16.879zM137.846 132.923l90.022 163.165c0 5.626 5.626 11.253 5.626 11.253v185.67c0 157.538 123.78 281.319 281.319 281.319s281.319-123.78 281.319-281.319v-185.67c0-5.626 0-11.253 5.626-11.253l90.022-163.165h-753.934zM694.857 279.209h-382.593c-16.879 0-28.132 11.253-28.132 28.132s11.253 28.132 28.132 28.132h382.593c16.879 0 28.132-11.253 28.132-28.132s-11.253-28.132-28.132-28.132z" />
<glyph unicode="&#xe932;" glyph-name="home-preview" d="M1023.999 533.78l-123.309 359.204c-5.361 10.723-16.084 16.084-26.806 16.084h-718.408c-10.723 0-21.445-5.361-26.806-16.084l-123.309-359.204c-5.361-10.723 0-16.084 5.361-26.806 5.361-5.361 10.723-10.723 21.445-10.723h85.78v-423.539c0-48.251 37.529-85.78 85.78-85.78h605.822c48.251 0 85.78 37.529 85.78 85.78v423.539h101.864c10.723 0 16.084 5.361 21.445 10.723 5.361 10.723 5.361 16.084 5.361 26.806zM412.816 40.544v327.037h198.366v-327.037h-198.366zM873.884 549.863c-16.084 0-26.806-10.723-26.806-26.806v-450.346c0-16.084-16.084-32.168-32.168-32.168h-150.115v353.843c0 16.084-10.723 26.806-26.806 26.806h-251.979c-16.084 0-26.806-10.723-26.806-26.806v-353.843h-150.115c-16.084 0-32.168 16.084-32.168 32.168v450.346c0 16.084-10.723 26.806-26.806 26.806h-80.419l101.864 305.592h680.88l101.864-305.592h-80.419z" />
<glyph unicode="&#xe933;" glyph-name="shopping-cart" d="M942.565 354.742l74.587 369.577h-745.905l-27.134 122.072-223.762 108.505-20.351-37.31 206.835-98.33 105.113-495.009h600.122c0 0 57.628-37.31 37.31-84.763-10.175-13.567-27.134-33.918-54.237-33.918h-596.731v-44.061h596.731c40.701 0 74.587 20.351 94.938 57.628 33.918 74.587-47.453 135.608-47.453 135.608v0zM345.834 368.309l-67.804 315.308h684.885l-64.412-315.308h-552.669zM417.030 103.846c-44.061 0-81.371-37.31-81.371-81.371s37.31-81.371 81.371-81.371 81.371 37.31 81.371 81.371c0 47.453-33.918 81.371-81.371 81.371zM417.030-14.835c-20.351 0-40.701 16.959-40.701 37.31s16.959 37.31 40.701 37.31 40.701-16.959 40.701-37.31-16.959-37.31-40.701-37.31zM857.802 103.846c-44.061 0-81.371-37.31-81.371-81.371s37.31-81.371 81.371-81.371 84.763 37.31 81.371 81.371c3.392 44.061-33.918 81.371-81.371 81.371zM898.472 22.475c0-20.351-16.959-37.31-40.701-37.31s-40.701 16.959-40.701 37.31 16.959 37.31 40.701 37.31 44.061-16.959 40.701-37.31z" />
<glyph unicode="&#xe934;" glyph-name="refresh" d="M232.107 727.893c68.267 75.093 170.667 116.053 279.893 116.053 122.88 0 232.107-54.613 307.2-143.36l-136.533-136.533h341.333v341.333l-122.88-122.88c-95.573 109.227-238.933 177.493-389.12 177.493-143.36 0-266.24-54.613-361.813-150.187-68.267-68.267-116.053-150.187-136.533-245.76h116.053c20.48 61.44 54.613 116.053 102.4 163.84v0 0zM791.893 168.107c-75.093-75.093-170.667-116.053-279.893-116.053-122.88 0-232.107 54.613-307.2 143.36l136.533 136.533h-341.333v-341.333l122.88 122.88c95.573-109.227 238.933-177.493 389.12-177.493 143.36 0 266.24 54.613 361.813 150.187 68.267 68.267 116.053 150.187 136.533 245.76h-116.053c-20.48-61.44-54.613-116.053-102.4-163.84v0 0z" />
<glyph unicode="&#xe935;" glyph-name="crm-logo-2nd" horiz-adv-x="5664" d="M4185.312 504.832l-1.216 296.736h54.72c67.264 0 137.28-2.048 159.456-6.4 30.080-5.536 55.2-19.552 74.816-42.080 19.808-22.368 29.6-65.376 29.6-100.032 0-27.744-7.104-65.632-20.928-86.912-14.176-21.12-33.504-36.576-58.304-46.432-24.8-9.92-99.040-14.88-172.544-14.88h-65.632zM4529.12 396.192c10.304 5.76 20.64 11.968 30.944 19.264 31.584 22.56 57.664 53.76 78.368 93.472 20.48 39.744 30.752 88.704 30.752 146.976 0 75.456-17.76 136.864-53.472 184.64-35.776 47.648-80 78.592-132.896 92.736-34.176 9.536-108.096 14.336-221.248 14.336h-239.264v-1010.56h14.336c34.624 1.536 111.616 16.288 146.912 118.944 0.576 5.024 2.432 21.024 2.432 30.752l-0.672 154.88-0.672 115.36h85.568c33.664 0 79.744 0.736 106.944 2.176l186.496-394.24c3.84-8.128 11.968-13.28 20.928-13.28h147.52c4.256 1.536 5.216 4.32 4.16 6.592l-207.104 437.952zM5486.592 641.088l-195.104-395.648c-7.808-15.776-23.936-25.824-41.536-25.824h-46.592c-17.632 0-33.696 10.016-41.536 25.824l-195.104 395.648v-550.432c0-76.768-36.128-138.944-112.832-138.944h-52.736v972.736c0 12.768 10.368 23.136 23.136 23.136h141.888c8.864 0 16.896-5.024 20.832-12.928l238.976-484.256 241.728 484.352c3.936 7.84 11.904 12.832 20.736 12.832h147.616c12.768 0 23.136-10.368 23.136-23.136v-972.736h-52.672c-76.768 0-119.936 62.176-119.936 138.944v550.432zM782.24 451.68c0 195.744-138.272 354.4-308.8 354.4s-308.736-158.656-308.736-354.4c0-195.744 138.208-354.4 308.736-354.4s308.8 158.656 308.8 354.4zM-0.192 451.264c0 274.080 212.096 496.352 473.792 496.352s473.792-222.24 473.792-496.352c0-274.144-212.096-496.384-473.792-496.384s-473.792 222.24-473.792 496.384zM2697.12 859.968v0c0 54.688 44.32 98.976 98.944 98.976h1.504c54.688 0 98.976-44.32 98.976-98.976 0-54.624-44.32-98.944-98.976-98.944h-1.504c-54.624 0-98.944 44.32-98.944 98.944zM2711.648 98.88c0-76.768 54.752-138.976 122.304-138.976h47.168v703.808c0 2.56-1.792 4.64-4.096 4.64h-159.264c-3.424 0-6.144-3.136-6.144-6.976v-562.528zM1704.384 687.744c147.104 0 266.336-119.232 266.336-266.336v-460.032h-36.32c-60.16 0-108.96 48.768-108.96 108.96v351.104c0 66.848-54.208 121.056-121.056 121.056s-121.056-54.208-121.056-121.056v-351.104c0-60.192-48.768-108.96-108.96-108.96h-36.32v460.032c0 66.848-54.208 121.056-121.056 121.056s-121.056-54.208-121.056-121.056v-363.2c0-53.504-43.36-96.864-96.864-96.864h-48.128l-0.288 460.032c0 147.104 119.232 266.336 266.336 266.336 76.32 0 145.152-32.096 193.696-83.552 48.544 51.424 117.376 83.552 193.696 83.552zM2554.272-38.624h36.32v460.032c0 147.104-119.232 266.336-266.336 266.336s-266.336-119.232-266.336-266.336l0.288-460.032h36.032c60.16 0 108.96 48.768 108.96 108.96v351.104c0 66.848 54.208 121.056 121.056 121.056s121.056-54.208 121.056-121.056v-351.104c0-60.192 48.768-108.96 108.96-108.96zM3215.552 451.648c0 195.776 138.208 354.432 308.704 354.432 79.296 0 151.424-34.4 206.016-90.816 0 0 0 0 0 0v0c36.96-38.208 97.92-39.2 136.128-2.24 0.384 0.384 0.768 0.736 1.152 1.12 0.64 0.64 1.152 1.152 1.504 1.504 6.56 6.56 13.472 13.472 20.704 20.704 1.6 1.6 3.68 3.68 6.272 6.272v0c3.808 3.808 4.256 9.856 1.024 14.176-1.984 2.656-3.616 4.8-4.896 6.496-86.816 112.224-219.104 184.288-367.744 184.288-261.696 0-473.792-222.272-473.792-496.352 0-274.144 212.096-496.352 473.792-496.352 153.792 0 290.080 77.088 376.608 196.032-19.136 19.136-31.936 31.936-38.4 38.4-1.216 1.216-4.832 4.832-10.784 10.784v0c-30.464 30.464-79.84 30.464-110.304 0.032-0.992-0.992-1.952-1.984-2.88-3.040 0 0 0 0 0 0-55.488-61.76-131.008-99.84-214.4-99.84-170.496 0-308.704 158.656-308.704 354.368z" />
<glyph unicode="&#xe936;" glyph-name="pencil" d="M998.126 792.822l-140.159 140.159c-32.979 32.979-74.201 32.979-107.18 0l-601.856-601.856c0-8.245-8.245-8.245-8.245-24.734l-131.914-263.828c-32.979-57.712 32.979-123.669 98.935-98.935l272.072 123.669c8.245 0 16.489 8.245 24.734 16.489l601.856 601.856c24.734 24.734 24.734 82.446-8.245 107.18zM338.558 141.497l-247.339-115.425 123.669 239.094 453.454 461.699 131.914-131.914-461.699-453.454zM849.723 660.908l-123.669 123.669 82.446 82.446 131.914-131.914-90.691-74.201z" />
<glyph unicode="&#xe937;" glyph-name="import" d="M4.146 327.773v-281.91c0-58.040 49.749-107.789 107.789-107.789h804.275c58.040 0 107.789 49.749 107.789 107.789v804.275c0 58.040-49.749 107.789-107.789 107.789h-281.91c-24.875 0-41.458-16.583-41.458-41.458s16.583-41.458 41.458-41.458h273.619c16.583 0 24.875-8.292 24.875-24.875v-804.275c0-16.583-8.292-24.875-24.875-24.875h-795.983c-16.583 0-24.875 8.292-24.875 24.875v281.91c0 24.875-16.583 41.458-41.458 41.458s-41.458-24.875-41.458-41.458zM443.595 460.437h-149.247c-24.875 0-41.458-16.583-41.458-41.458s16.583-41.458 41.458-41.458h290.202v290.202c0 24.875-16.583 41.458-41.458 41.458s-41.458-16.583-41.458-41.458v-149.247l-431.157 422.866c-16.583 16.583-41.458 16.583-58.040 0s-16.583-41.458 0-58.040l431.157-422.866z" />
<glyph unicode="&#xe938;" glyph-name="eye" horiz-adv-x="1583" d="M791.5 913.454c335.127 0 633.018-186.182 707.491-456.145v-18.618c-74.473-269.964-372.364-456.145-707.491-456.145s-633.018 186.182-707.491 456.145v18.618c74.473 269.964 372.364 456.145 707.491 456.145zM791.5 820.363c-297.891 0-539.927-158.255-614.4-372.364 74.473-214.109 325.818-372.364 614.4-372.364s539.927 158.255 614.4 372.364c-74.473 214.109-316.509 372.364-614.4 372.364zM903.209 662.108c-27.927 18.618-74.473 27.927-111.709 27.927-130.327 0-242.036-111.709-242.036-242.036s111.709-242.036 242.036-242.036 242.036 111.709 242.036 242.036c0 9.309 0 18.618 0 27.927-18.618-27.927-55.855-46.545-93.091-46.545-65.164 0-121.018 55.855-121.018 121.018-9.309 46.545 37.236 93.091 83.782 111.709z" />
<glyph unicode="&#xe939;" glyph-name="infoModule" d="M512 320.653l307.661 230.746-307.661 230.746v-461.492zM923.036 959.974c27.245 0 50.884-10.016 70.916-30.048s30.048-43.671 30.048-70.916v-615.323c0-27.245-10.016-51.277-30.048-72.095s-43.671-31.228-70.916-31.228h-615.323c-27.245 0-51.277 10.409-72.095 31.228s-31.228 44.85-31.228 72.095v615.323c0 27.245 10.409 50.884 31.228 70.916s44.85 30.048 72.095 30.048h615.323zM100.964 755.687v-718.697h718.697v-100.964h-718.697c-27.245 0-50.884 10.016-70.916 30.048s-30.048 43.671-30.048 70.916v718.697h100.964z" />
<glyph unicode="&#xe93a;" glyph-name="totop" horiz-adv-x="768" d="M640 499.2l-211.2 243.2c-19.2 19.2-44.8 25.6-70.4 25.6 0 0 0 0 0 0s0 0 0 0c-25.6 0-51.2-6.4-70.4-25.6l-211.2-243.2c-19.2-12.8-12.8-38.4 0-51.2 12.8-19.2 38.4-12.8 51.2 0l192 211.2v-665.6c0-19.2 19.2-38.4 38.4-38.4s38.4 19.2 38.4 38.4v665.6l192-211.2c12.8-12.8 38.4-19.2 51.2 0 12.8 12.8 19.2 38.4 0 51.2zM38.4 883.2h672c19.2 0 38.4 19.2 38.4 38.4s-19.2 38.4-38.4 38.4h-672c-19.2 0-38.4-19.2-38.4-38.4s19.2-38.4 38.4-38.4z" />
<glyph unicode="&#xe93b;" glyph-name="copy" d="M693.417 16.629c0 0 8.063 8.063 0 0l8.063 612.787c0 0 0 8.063-8.063 8.063h-604.724c-8.063 0-8.063 0-8.063-8.063v-604.724c0 0 0-8.063 8.063-8.063 0 0 604.724 0 604.724 0zM693.417-64h-604.724c-48.378 0-88.693 40.315-88.693 88.693v604.724c0 48.378 40.315 88.693 88.693 88.693h604.724c48.378 0 88.693-40.315 88.693-88.693v-604.724c0-48.378-40.315-88.693-88.693-88.693zM322.519 871.307c0 8.063 0 8.063 0 0l612.787 8.063c0 0 8.063 0 8.063-8.063v-604.724c0 0 0-8.063-8.063-8.063-24.189 0-40.315-16.126-40.315-40.315s16.126-40.315 40.315-40.315c48.378 0 88.693 40.315 88.693 88.693v604.724c0 48.378-40.315 88.693-88.693 88.693h-604.724c-48.378 0-88.693-40.315-88.693-88.693 0-24.189 16.126-40.315 40.315-40.315s40.315 24.189 40.315 40.315z" />
<glyph unicode="&#xe93c;" glyph-name="delete" d="M974.849 808.448h-245.76l-16.384 73.728c-8.192 40.96-40.96 73.728-90.112 73.728h-229.376c-40.96 0-81.92-32.768-90.112-73.728l-8.192-73.728h-253.953c-24.576 0-40.96-16.384-40.96-40.96s16.384-40.96 40.96-40.96h73.728v-696.32c0-49.153 40.96-90.112 90.112-90.112h614.4c49.153 0 90.112 40.96 90.112 90.112v696.32h73.728c24.576 0 40.96 16.384 40.96 40.96s-24.576 40.96-49.153 40.96zM385.024 865.792c0 8.192 8.192 8.192 0 0l237.568 8.192c0 0 8.192 0 8.192-8.192l8.192-57.344h-262.145l8.192 57.344zM827.393 30.208c0-8.192 0-8.192-8.192-8.192h-614.4c-8.192 0-8.192 0-8.192 8.192v688.129h630.784v-688.129zM344.065 194.048c24.576 0 40.96 16.384 40.96 40.96v286.72c0 24.576-16.384 40.96-40.96 40.96s-40.96-24.576-40.96-40.96v-278.528c0-24.576 16.384-49.153 40.96-49.153zM516.097 194.048c24.576 0 40.96 16.384 40.96 40.96v286.72c0 24.576-16.384 40.96-40.96 40.96s-40.96-24.576-40.96-40.96v-278.528c0-24.576 16.384-49.153 40.96-49.153zM679.937 194.048c24.576 0 40.96 16.384 40.96 40.96v286.72c0 24.576-16.384 40.96-40.96 40.96s-40.96-24.576-40.96-40.96v-278.528c0-24.576 16.384-49.153 40.96-49.153z" />
<glyph unicode="&#xe93d;" glyph-name="inventory" horiz-adv-x="1092" d="M1075.729 544.115l-510.342 381.055c-13.609 6.805-27.219 6.805-40.827 0l-510.342-381.055c-13.609-13.609-20.414-34.022-6.805-47.632s34.022-20.414 47.632-6.805l74.85 54.436v-537.561c0-20.414 13.609-34.022 34.022-34.022s34.022 13.609 34.022 34.022v578.388c0 0 0 0 0 6.805l347.033 265.378 353.838-265.378c0 0 0 0 0-6.805v-585.192c0-20.414 13.609-34.022 34.022-34.022s34.022 13.609 34.022 34.022v544.365l74.85-54.436c13.609-13.609 34.022-6.805 47.632 6.805 6.805 13.609 0 34.022-13.609 47.632zM402.078 101.819h-122.482c-13.609 0-20.414-13.609-20.414-20.414v-74.85c0-13.609 13.609-20.414 20.414-20.414h122.482c13.609 0 20.414 13.609 20.414 20.414v74.85c6.805 6.805-6.805 20.414-20.414 20.414zM599.411 101.819h-122.482c-13.609 0-20.414-13.609-20.414-20.414v-74.85c0-20.414 6.805-27.219 20.414-27.219h122.482c13.609 0 20.414 13.609 20.414 20.414v74.85c6.805 13.609-6.805 27.219-20.414 27.219zM402.078 271.932h-122.482c-13.609 0-20.414-13.609-20.414-20.414v-74.85c0-13.609 13.609-20.414 20.414-20.414h122.482c13.609 0 20.414 13.609 20.414 20.414v74.85c6.805 6.805-6.805 20.414-20.414 20.414zM402.078 448.851h-122.482c-13.609 0-20.414-13.609-20.414-20.414v-74.85c0-13.609 13.609-20.414 20.414-20.414h122.482c13.609 0 20.414 13.609 20.414 20.414v74.85c6.805 13.609-6.805 20.414-20.414 20.414zM599.411 271.932h-122.482c-13.609 0-20.414-13.609-20.414-20.414v-74.85c0-13.609 13.609-20.414 20.414-20.414h122.482c13.609 0 20.414 13.609 20.414 20.414v74.85c6.805 6.805-6.805 20.414-20.414 20.414zM803.547 101.819h-129.287c-13.609 0-20.414-13.609-20.414-20.414v-74.85c0-13.609 13.609-20.414 20.414-20.414h122.482c13.609 0 20.414 13.609 20.414 20.414v74.85c6.805 6.805-6.805 20.414-13.609 20.414z" />
</font>
</defs>
</svg>
